<?xml version="1.0" encoding="utf-8"?>
<!-- Generator: Adobe Illustrator 16.0.0, SVG Export Plug-In . SVG Version: 6.00 Build 0)  -->
<!DOCTYPE svg PUBLIC "-//W3C//DTD SVG 1.1//EN" "http://www.w3.org/Graphics/SVG/1.1/DTD/svg11.dtd">
<svg version="1.1" id="Layer_1" xmlns="http://www.w3.org/2000/svg" xmlns:xlink="http://www.w3.org/1999/xlink" x="0px" y="0px"
	 viewBox="0 0 1014.344 1200" enable-background="new 0 0 1014.344 1200" xml:space="preserve">
<g>
	<path fill="#FFFFFF" d="M703.45,81.863L66.138,869.938c0,0-24.401,17.106-34.839,101.375l188.424,144.759
		c0,0,48.845-18.612,95.584-55.852L970.41,248.647L703.45,81.863z"/>
	<path fill="#FAAF1F" d="M991.358,227.382l-33.272,40.72L703.45,81.863l33.275-40.706c36.798-44.983,104.642-53.61,151.482-19.313
		l84.88,62.112C1019.915,118.218,1028.096,182.442,991.358,227.382L991.358,227.382z"/>
	<path fill="#FAAF1F" d="M279.57,1023.441c-9.115,11.287-6.921,27.333,4.836,35.825c11.806,8.527,28.72,6.227,37.824-5.148
		l522.191-646.365l-42.923-29.927L279.57,1023.441z"/>
	<path fill="#FAAF1F" d="M173.133,949.471c-9.118,11.274-6.931,27.345,4.846,35.835c11.795,8.521,28.694,6.216,37.799-5.137
		l522.199-646.383l-42.906-29.932L173.133,949.471z"/>
	<path fill="#FAAF1F" d="M66.138,869.938c-9.093,11.305-6.923,27.338,4.871,35.836c11.758,8.474,28.706,6.174,37.793-5.113
		L633.07,254.025l-45.396-34.067L66.138,869.938z"/>
	<path fill="#FAAF1F" d="M251.338,1100.114c-14.449-10.391-22.709-24.932-27.139-40.482c-5.319,1.545-10.708,3.043-16.316,3.791
		c-28.582,3.868-56.865-3.072-79.661-19.495c-22.812-16.453-37.376-40.341-41.045-67.396c-0.659-4.954-0.554-9.849-0.448-14.738
		c-17.596,0.102-34.531-4.911-48.708-15.078c-1.345-0.99-1.969-2.453-3.256-3.556L2.993,1199.501l252.247-97.116
		C253.974,1101.589,252.563,1101.011,251.338,1100.114L251.338,1100.114z"/>
	<path fill="#FAAF1F" d="M251.338,1100.114"/>
	<polygon fill="#FAAF1F" points="872.404,371.157 616.375,181.044 670.115,119.775 923.802,309.303 	"/>
</g>
</svg>
